# MagicaVoxel @ Ephtracy

# group
o 

# material
mtllib column.mtl
usemtl palette

# normals
vn -1 0 0
vn 1 0 0
vn 0 0 1
vn 0 0 -1
vn 0 -1 0
vn 0 1 0

# texcoords
vt 0.970703 0.5
vt 0.974609 0.5
vt 0.978516 0.5
vt 0.982422 0.5

# verts
v -0.3 0 0.3
v -0.3 0 -0.3
v -0.3 0.6 0.3
v -0.3 0.6 -0.3
v -0.3 0.7 0.2
v -0.3 0.7 -0.2
v -0.3 2.1 0.2
v -0.3 2.1 -0.2
v -0.3 2.2 0.3
v -0.3 2.2 -0.3
v -0.3 2.3 0.3
v -0.3 2.3 -0.3
v -0.2 0.6 0.2
v -0.2 0.6 -0.2
v -0.2 0.7 0.3
v -0.2 0.7 0.2
v -0.2 0.7 -0.2
v -0.2 0.7 -0.3
v -0.2 2.1 0.3
v -0.2 2.1 0.2
v -0.2 2.1 -0.2
v -0.2 2.1 -0.3
v -0.2 2.2 0.2
v -0.2 2.2 -0.2
v -0.1 0.2 0.3
v -0.1 0.2 0.2
v -0.1 0.2 -0.2
v -0.1 0.2 -0.3
v -0.1 0.3 0.2
v -0.1 0.3 -0.2
v -0.1 0.4 0.3
v -0.1 0.4 0.2
v -0.1 0.4 -0.2
v -0.1 0.4 -0.3
v 0.1 0.8 0.3
v 0.1 0.8 0.2
v 0.1 0.8 -0.2
v 0.1 0.8 -0.3
v 0.1 1.3 0.2
v 0.1 1.3 -0.2
v 0.1 1.4 0.2
v 0.1 1.4 -0.2
v 0.1 1.5 0.2
v 0.1 1.5 -0.2
v 0.1 2 0.3
v 0.1 2 0.2
v 0.1 2 -0.2
v 0.1 2 -0.3
v 0.2 0.1 0.3
v 0.2 0.1 0.2
v 0.2 0.1 -0.2
v 0.2 0.1 -0.3
v 0.2 0.3 0.2
v 0.2 0.3 -0.2
v 0.2 0.5 0.3
v 0.2 0.5 0.2
v 0.2 0.5 -0.2
v 0.2 0.5 -0.3
v -0.2 0.1 0.3
v -0.2 0.1 0.2
v -0.2 0.1 -0.2
v -0.2 0.1 -0.3
v -0.2 0.3 0.2
v -0.2 0.3 -0.2
v -0.2 0.5 0.3
v -0.2 0.5 0.2
v -0.2 0.5 -0.2
v -0.2 0.5 -0.3
v -0.1 0.8 0.3
v -0.1 0.8 0.2
v -0.1 0.8 -0.2
v -0.1 0.8 -0.3
v -0.1 1.2 0.2
v -0.1 1.2 -0.2
v -0.1 1.3 0.2
v -0.1 1.3 -0.2
v -0.1 1.4 0.2
v -0.1 1.4 -0.2
v -0.1 1.5 0.2
v -0.1 1.5 -0.2
v -0.1 1.6 0.2
v -0.1 1.6 -0.2
v -0.1 2 0.3
v -0.1 2 0.2
v -0.1 2 -0.2
v -0.1 2 -0.3
v 0.1 0.2 0.3
v 0.1 0.2 0.2
v 0.1 0.2 -0.2
v 0.1 0.2 -0.3
v 0.1 0.3 0.2
v 0.1 0.3 -0.2
v 0.1 0.4 0.3
v 0.1 0.4 0.2
v 0.1 0.4 -0.2
v 0.1 0.4 -0.3
v 0.2 0.6 0.2
v 0.2 0.6 -0.2
v 0.2 0.7 0.3
v 0.2 0.7 0.2
v 0.2 0.7 -0.2
v 0.2 0.7 -0.3
v 0.2 2.1 0.3
v 0.2 2.1 0.2
v 0.2 2.1 -0.2
v 0.2 2.1 -0.3
v 0.2 2.2 0.2
v 0.2 2.2 -0.2
v 0.3 0 0.3
v 0.3 0 -0.3
v 0.3 0.6 0.3
v 0.3 0.6 -0.3
v 0.3 0.7 0.2
v 0.3 0.7 -0.2
v 0.3 2.1 0.2
v 0.3 2.1 -0.2
v 0.3 2.2 0.3
v 0.3 2.2 -0.3
v 0.3 2.3 0.3
v 0.3 2.3 -0.3
v -0.3 0 0.3
v -0.3 0.6 0.3
v -0.3 2.2 0.3
v -0.3 2.3 0.3
v -0.2 0.1 0.3
v -0.2 0.5 0.3
v -0.2 0.7 0.3
v -0.2 2.1 0.3
v -0.1 0.2 0.3
v -0.1 0.4 0.3
v -0.1 0.8 0.3
v -0.1 2 0.3
v 0 2.2 0.3
v 0 2.3 0.3
v 0.1 0.2 0.3
v 0.1 0.4 0.3
v 0.1 0.8 0.3
v 0.1 2 0.3
v 0.2 0.1 0.3
v 0.2 0.5 0.3
v 0.2 0.7 0.3
v 0.2 2.1 0.3
v 0.3 0 0.3
v 0.3 0.6 0.3
v 0.3 2.2 0.3
v 0.3 2.3 0.3
v -0.3 0.7 0.2
v -0.3 2.1 0.2
v -0.2 0.1 0.2
v -0.2 0.3 0.2
v -0.2 0.5 0.2
v -0.2 0.6 0.2
v -0.2 0.7 0.2
v -0.2 2.1 0.2
v -0.2 2.2 0.2
v -0.1 0.2 0.2
v -0.1 0.3 0.2
v -0.1 0.4 0.2
v -0.1 0.8 0.2
v -0.1 1.2 0.2
v -0.1 1.3 0.2
v -0.1 1.4 0.2
v -0.1 1.5 0.2
v -0.1 1.6 0.2
v -0.1 2 0.2
v 0 1.2 0.2
v 0 1.3 0.2
v 0 1.4 0.2
v 0 1.5 0.2
v 0 1.6 0.2
v 0 2.2 0.2
v 0.1 0.2 0.2
v 0.1 0.3 0.2
v 0.1 0.4 0.2
v 0.1 0.8 0.2
v 0.1 1.3 0.2
v 0.1 1.4 0.2
v 0.1 1.5 0.2
v 0.1 2 0.2
v 0.2 0.1 0.2
v 0.2 0.3 0.2
v 0.2 0.5 0.2
v 0.2 0.6 0.2
v 0.2 0.7 0.2
v 0.2 2.1 0.2
v 0.2 2.2 0.2
v 0.3 0.7 0.2
v 0.3 2.1 0.2
v -0.3 0.7 -0.2
v -0.3 2.1 -0.2
v -0.2 0.1 -0.2
v -0.2 0.3 -0.2
v -0.2 0.5 -0.2
v -0.2 0.6 -0.2
v -0.2 0.7 -0.2
v -0.2 2.1 -0.2
v -0.2 2.2 -0.2
v -0.1 0.2 -0.2
v -0.1 0.3 -0.2
v -0.1 0.4 -0.2
v -0.1 0.8 -0.2
v -0.1 1.2 -0.2
v -0.1 1.3 -0.2
v -0.1 1.4 -0.2
v -0.1 1.5 -0.2
v -0.1 1.6 -0.2
v -0.1 2 -0.2
v 0 1.2 -0.2
v 0 1.3 -0.2
v 0 1.4 -0.2
v 0 1.5 -0.2
v 0 1.6 -0.2
v 0 2.2 -0.2
v 0.1 0.2 -0.2
v 0.1 0.3 -0.2
v 0.1 0.4 -0.2
v 0.1 0.8 -0.2
v 0.1 1.3 -0.2
v 0.1 1.4 -0.2
v 0.1 1.5 -0.2
v 0.1 2 -0.2
v 0.2 0.1 -0.2
v 0.2 0.3 -0.2
v 0.2 0.5 -0.2
v 0.2 0.6 -0.2
v 0.2 0.7 -0.2
v 0.2 2.1 -0.2
v 0.2 2.2 -0.2
v 0.3 0.7 -0.2
v 0.3 2.1 -0.2
v -0.3 0 -0.3
v -0.3 0.6 -0.3
v -0.3 2.2 -0.3
v -0.3 2.3 -0.3
v -0.2 0.1 -0.3
v -0.2 0.5 -0.3
v -0.2 0.7 -0.3
v -0.2 2.1 -0.3
v -0.1 0.2 -0.3
v -0.1 0.4 -0.3
v -0.1 0.8 -0.3
v -0.1 2 -0.3
v 0 2.2 -0.3
v 0 2.3 -0.3
v 0.1 0.2 -0.3
v 0.1 0.4 -0.3
v 0.1 0.8 -0.3
v 0.1 2 -0.3
v 0.2 0.1 -0.3
v 0.2 0.5 -0.3
v 0.2 0.7 -0.3
v 0.2 2.1 -0.3
v 0.3 0 -0.3
v 0.3 0.6 -0.3
v 0.3 2.2 -0.3
v 0.3 2.3 -0.3
v -0.3 0 0.3
v 0.3 0 0.3
v -0.3 0 -0.3
v 0.3 0 -0.3
v -0.1 0.2 0.3
v 0.1 0.2 0.3
v -0.1 0.2 0.2
v 0.1 0.2 0.2
v -0.1 0.2 -0.2
v 0.1 0.2 -0.2
v -0.1 0.2 -0.3
v 0.1 0.2 -0.3
v -0.2 0.5 0.3
v 0.2 0.5 0.3
v -0.2 0.5 0.2
v 0.2 0.5 0.2
v -0.2 0.5 -0.2
v 0.2 0.5 -0.2
v -0.2 0.5 -0.3
v 0.2 0.5 -0.3
v -0.2 0.7 0.3
v 0.2 0.7 0.3
v -0.3 0.7 0.2
v -0.2 0.7 0.2
v 0.2 0.7 0.2
v 0.3 0.7 0.2
v -0.3 0.7 -0.2
v -0.2 0.7 -0.2
v 0.2 0.7 -0.2
v 0.3 0.7 -0.2
v -0.2 0.7 -0.3
v 0.2 0.7 -0.3
v -0.1 2 0.3
v 0.1 2 0.3
v -0.1 2 0.2
v 0.1 2 0.2
v -0.1 2 -0.2
v 0.1 2 -0.2
v -0.1 2 -0.3
v 0.1 2 -0.3
v -0.3 2.2 0.3
v 0 2.2 0.3
v 0.3 2.2 0.3
v -0.2 2.2 0.2
v 0 2.2 0.2
v 0.2 2.2 0.2
v -0.2 2.2 -0.2
v 0 2.2 -0.2
v 0.2 2.2 -0.2
v -0.3 2.2 -0.3
v 0 2.2 -0.3
v 0.3 2.2 -0.3
v -0.2 0.1 0.3
v 0.2 0.1 0.3
v -0.2 0.1 0.2
v 0.2 0.1 0.2
v -0.2 0.1 -0.2
v 0.2 0.1 -0.2
v -0.2 0.1 -0.3
v 0.2 0.1 -0.3
v -0.1 0.4 0.3
v 0.1 0.4 0.3
v -0.1 0.4 0.2
v 0.1 0.4 0.2
v -0.1 0.4 -0.2
v 0.1 0.4 -0.2
v -0.1 0.4 -0.3
v 0.1 0.4 -0.3
v -0.3 0.6 0.3
v 0.3 0.6 0.3
v -0.2 0.6 0.2
v 0.2 0.6 0.2
v -0.2 0.6 -0.2
v 0.2 0.6 -0.2
v -0.3 0.6 -0.3
v 0.3 0.6 -0.3
v -0.1 0.8 0.3
v 0.1 0.8 0.3
v -0.1 0.8 0.2
v 0.1 0.8 0.2
v -0.1 0.8 -0.2
v 0.1 0.8 -0.2
v -0.1 0.8 -0.3
v 0.1 0.8 -0.3
v -0.2 2.1 0.3
v 0.2 2.1 0.3
v -0.3 2.1 0.2
v -0.2 2.1 0.2
v 0.2 2.1 0.2
v 0.3 2.1 0.2
v -0.3 2.1 -0.2
v -0.2 2.1 -0.2
v 0.2 2.1 -0.2
v 0.3 2.1 -0.2
v -0.2 2.1 -0.3
v 0.2 2.1 -0.3
v -0.3 2.3 0.3
v 0 2.3 0.3
v 0.3 2.3 0.3
v -0.2 2.3 0.2
v 0 2.3 0.2
v -0.2 2.3 -0.2
v 0 2.3 -0.2
v -0.3 2.3 -0.3
v 0 2.3 -0.3
v 0.3 2.3 -0.3

# faces
f 3/2/1 2/2/1 1/2/1
f 4/2/1 2/2/1 3/2/1
f 7/2/1 6/2/1 5/2/1
f 8/2/1 6/2/1 7/2/1
f 11/2/1 10/2/1 9/2/1
f 12/2/1 10/2/1 11/2/1
f 16/4/1 14/4/1 13/4/1
f 17/4/1 14/4/1 16/4/1
f 19/2/1 16/2/1 15/2/1
f 20/2/1 16/2/1 19/2/1
f 21/2/1 18/2/1 17/2/1
f 22/2/1 18/2/1 21/2/1
f 23/4/1 21/4/1 20/4/1
f 24/4/1 21/4/1 23/4/1
f 29/2/1 26/2/1 25/2/1
f 30/2/1 28/2/1 27/2/1
f 31/2/1 29/2/1 25/2/1
f 32/2/1 29/2/1 31/2/1
f 33/2/1 28/2/1 30/2/1
f 34/2/1 28/2/1 33/2/1
f 39/2/1 36/2/1 35/2/1
f 40/2/1 38/2/1 37/2/1
f 41/2/1 39/2/1 35/2/1
f 42/2/1 38/2/1 40/2/1
f 43/2/1 41/2/1 35/2/1
f 44/2/1 38/2/1 42/2/1
f 45/2/1 43/2/1 35/2/1
f 46/2/1 43/2/1 45/2/1
f 47/2/1 38/2/1 44/2/1
f 48/2/1 38/2/1 47/2/1
f 53/2/1 50/2/1 49/2/1
f 54/2/1 52/2/1 51/2/1
f 55/2/1 53/2/1 49/2/1
f 56/2/1 53/2/1 55/2/1
f 57/2/1 52/2/1 54/2/1
f 58/2/1 52/2/1 57/2/1
f 59/2/2 60/2/2 63/2/2
f 61/2/2 62/2/2 64/2/2
f 59/2/2 63/2/2 65/2/2
f 65/2/2 63/2/2 66/2/2
f 64/2/2 62/2/2 67/2/2
f 67/2/2 62/2/2 68/2/2
f 69/2/2 70/2/2 73/2/2
f 71/2/2 72/2/2 74/2/2
f 69/2/2 73/2/2 75/2/2
f 74/2/2 72/2/2 76/2/2
f 69/2/2 75/2/2 77/2/2
f 76/2/2 72/2/2 78/2/2
f 69/2/2 77/2/2 79/2/2
f 78/2/2 72/2/2 80/2/2
f 69/2/2 79/2/2 81/2/2
f 80/2/2 72/2/2 82/2/2
f 69/2/2 81/2/2 83/2/2
f 83/2/2 81/2/2 84/2/2
f 82/2/2 72/2/2 85/2/2
f 85/2/2 72/2/2 86/2/2
f 87/2/2 88/2/2 91/2/2
f 89/2/2 90/2/2 92/2/2
f 87/2/2 91/2/2 93/2/2
f 93/2/2 91/2/2 94/2/2
f 92/2/2 90/2/2 95/2/2
f 95/2/2 90/2/2 96/2/2
f 97/4/2 98/4/2 100/4/2
f 100/4/2 98/4/2 101/4/2
f 99/2/2 100/2/2 103/2/2
f 103/2/2 100/2/2 104/2/2
f 101/2/2 102/2/2 105/2/2
f 105/2/2 102/2/2 106/2/2
f 104/4/2 105/4/2 107/4/2
f 107/4/2 105/4/2 108/4/2
f 109/2/2 110/2/2 111/2/2
f 111/2/2 110/2/2 112/2/2
f 113/2/2 114/2/2 115/2/2
f 115/2/2 114/2/2 116/2/2
f 117/1/2 118/1/2 119/1/2
f 119/1/2 118/1/2 120/1/2
f 125/2/3 122/2/3 121/2/3
f 126/2/3 122/2/3 125/2/3
f 131/2/3 128/2/3 127/2/3
f 132/2/3 128/2/3 131/2/3
f 133/2/3 124/2/3 123/2/3
f 134/2/3 124/2/3 133/2/3
f 135/2/3 130/2/3 129/2/3
f 136/2/3 130/2/3 135/2/3
f 137/2/3 131/2/3 127/2/3
f 138/2/3 128/2/3 132/2/3
f 139/2/3 125/2/3 121/2/3
f 140/2/3 122/2/3 126/2/3
f 141/2/3 137/2/3 127/2/3
f 141/2/3 138/2/3 137/2/3
f 142/2/3 128/2/3 138/2/3
f 142/2/3 138/2/3 141/2/3
f 143/2/3 140/2/3 139/2/3
f 143/2/3 139/2/3 121/2/3
f 144/2/3 122/2/3 140/2/3
f 144/2/3 140/2/3 143/2/3
f 145/1/3 134/1/3 133/1/3
f 146/1/3 134/1/3 145/1/3
f 153/2/3 148/2/3 147/2/3
f 154/2/3 148/2/3 153/2/3
f 156/3/3 150/3/3 149/3/3
f 157/4/3 151/4/3 150/4/3
f 157/3/3 150/3/3 156/3/3
f 158/4/3 151/4/3 157/4/3
f 166/3/3 160/3/3 159/3/3
f 166/4/3 161/4/3 160/4/3
f 167/3/3 162/3/3 161/3/3
f 167/4/3 161/4/3 166/4/3
f 168/4/3 163/4/3 162/4/3
f 168/3/3 162/3/3 167/3/3
f 169/3/3 164/3/3 163/3/3
f 169/4/3 163/4/3 168/4/3
f 170/4/3 165/4/3 164/4/3
f 170/3/3 164/3/3 169/3/3
f 171/4/3 155/4/3 154/4/3
f 172/3/3 156/3/3 149/3/3
f 174/4/3 151/4/3 158/4/3
f 175/3/3 167/3/3 166/3/3
f 175/3/3 166/3/3 159/3/3
f 176/4/3 168/4/3 167/4/3
f 176/3/3 167/3/3 175/3/3
f 177/3/3 169/3/3 168/3/3
f 177/4/3 168/4/3 176/4/3
f 178/4/3 170/4/3 169/4/3
f 178/3/3 169/3/3 177/3/3
f 179/4/3 165/4/3 170/4/3
f 179/4/3 170/4/3 178/4/3
f 180/3/3 173/3/3 172/3/3
f 180/3/3 172/3/3 149/3/3
f 181/4/3 174/4/3 173/4/3
f 181/3/3 173/3/3 180/3/3
f 182/4/3 151/4/3 174/4/3
f 182/4/3 174/4/3 181/4/3
f 183/4/3 153/4/3 152/4/3
f 184/4/3 153/4/3 183/4/3
f 185/4/3 171/4/3 154/4/3
f 186/4/3 171/4/3 185/4/3
f 187/2/3 185/2/3 184/2/3
f 188/2/3 185/2/3 187/2/3
f 189/2/4 190/2/4 195/2/4
f 195/2/4 190/2/4 196/2/4
f 191/3/4 192/3/4 198/3/4
f 192/4/4 193/4/4 199/4/4
f 198/3/4 192/3/4 199/3/4
f 199/4/4 193/4/4 200/4/4
f 201/3/4 202/3/4 208/3/4
f 202/4/4 203/4/4 208/4/4
f 203/3/4 204/3/4 209/3/4
f 208/4/4 203/4/4 209/4/4
f 204/4/4 205/4/4 210/4/4
f 209/3/4 204/3/4 210/3/4
f 205/3/4 206/3/4 211/3/4
f 210/4/4 205/4/4 211/4/4
f 206/4/4 207/4/4 212/4/4
f 211/3/4 206/3/4 212/3/4
f 196/4/4 197/4/4 213/4/4
f 191/3/4 198/3/4 214/3/4
f 200/4/4 193/4/4 216/4/4
f 208/3/4 209/3/4 217/3/4
f 201/3/4 208/3/4 217/3/4
f 209/4/4 210/4/4 218/4/4
f 217/3/4 209/3/4 218/3/4
f 210/3/4 211/3/4 219/3/4
f 218/4/4 210/4/4 219/4/4
f 211/4/4 212/4/4 220/4/4
f 219/3/4 211/3/4 220/3/4
f 212/4/4 207/4/4 221/4/4
f 220/4/4 212/4/4 221/4/4
f 214/3/4 215/3/4 222/3/4
f 191/3/4 214/3/4 222/3/4
f 215/4/4 216/4/4 223/4/4
f 222/3/4 215/3/4 223/3/4
f 216/4/4 193/4/4 224/4/4
f 223/4/4 216/4/4 224/4/4
f 194/4/4 195/4/4 225/4/4
f 225/4/4 195/4/4 226/4/4
f 196/4/4 213/4/4 227/4/4
f 227/4/4 213/4/4 228/4/4
f 226/2/4 227/2/4 229/2/4
f 229/2/4 227/2/4 230/2/4
f 231/2/4 232/2/4 235/2/4
f 235/2/4 232/2/4 236/2/4
f 237/2/4 238/2/4 241/2/4
f 241/2/4 238/2/4 242/2/4
f 233/2/4 234/2/4 243/2/4
f 243/2/4 234/2/4 244/2/4
f 239/2/4 240/2/4 245/2/4
f 245/2/4 240/2/4 246/2/4
f 237/2/4 241/2/4 247/2/4
f 242/2/4 238/2/4 248/2/4
f 231/2/4 235/2/4 249/2/4
f 236/2/4 232/2/4 250/2/4
f 237/2/4 247/2/4 251/2/4
f 247/2/4 248/2/4 251/2/4
f 248/2/4 238/2/4 252/2/4
f 251/2/4 248/2/4 252/2/4
f 249/2/4 250/2/4 253/2/4
f 231/2/4 249/2/4 253/2/4
f 250/2/4 232/2/4 254/2/4
f 253/2/4 250/2/4 254/2/4
f 243/1/4 244/1/4 255/1/4
f 255/1/4 244/1/4 256/1/4
f 259/2/5 258/2/5 257/2/5
f 260/2/5 258/2/5 259/2/5
f 263/2/5 262/2/5 261/2/5
f 264/2/5 262/2/5 263/2/5
f 267/2/5 266/2/5 265/2/5
f 268/2/5 266/2/5 267/2/5
f 271/2/5 270/2/5 269/2/5
f 272/2/5 270/2/5 271/2/5
f 275/2/5 274/2/5 273/2/5
f 276/2/5 274/2/5 275/2/5
f 280/2/5 278/2/5 277/2/5
f 281/2/5 278/2/5 280/2/5
f 283/2/5 280/2/5 279/2/5
f 284/2/5 280/2/5 283/2/5
f 285/2/5 282/2/5 281/2/5
f 286/2/5 282/2/5 285/2/5
f 287/2/5 285/2/5 284/2/5
f 288/2/5 285/2/5 287/2/5
f 291/2/5 290/2/5 289/2/5
f 292/2/5 290/2/5 291/2/5
f 295/2/5 294/2/5 293/2/5
f 296/2/5 294/2/5 295/2/5
f 300/2/5 298/2/5 297/2/5
f 301/1/5 299/1/5 298/1/5
f 301/2/5 298/2/5 300/2/5
f 302/1/5 299/1/5 301/1/5
f 303/2/5 300/2/5 297/2/5
f 305/1/5 299/1/5 302/1/5
f 306/2/5 304/2/5 303/2/5
f 306/2/5 303/2/5 297/2/5
f 307/1/5 305/1/5 304/1/5
f 307/2/5 304/2/5 306/2/5
f 308/1/5 299/1/5 305/1/5
f 308/1/5 305/1/5 307/1/5
f 309/2/6 310/2/6 311/2/6
f 311/2/6 310/2/6 312/2/6
f 313/2/6 314/2/6 315/2/6
f 315/2/6 314/2/6 316/2/6
f 317/2/6 318/2/6 319/2/6
f 319/2/6 318/2/6 320/2/6
f 321/2/6 322/2/6 323/2/6
f 323/2/6 322/2/6 324/2/6
f 325/2/6 326/2/6 327/2/6
f 327/2/6 326/2/6 328/2/6
f 325/2/6 327/2/6 329/2/6
f 328/2/6 326/2/6 330/2/6
f 325/2/6 329/2/6 331/2/6
f 329/2/6 330/2/6 331/2/6
f 330/2/6 326/2/6 332/2/6
f 331/2/6 330/2/6 332/2/6
f 333/2/6 334/2/6 335/2/6
f 335/2/6 334/2/6 336/2/6
f 337/2/6 338/2/6 339/2/6
f 339/2/6 338/2/6 340/2/6
f 341/2/6 342/2/6 344/2/6
f 344/2/6 342/2/6 345/2/6
f 343/2/6 344/2/6 347/2/6
f 347/2/6 344/2/6 348/2/6
f 345/2/6 346/2/6 349/2/6
f 349/2/6 346/2/6 350/2/6
f 348/2/6 349/2/6 351/2/6
f 351/2/6 349/2/6 352/2/6
f 353/2/6 354/2/6 356/2/6
f 354/1/6 355/1/6 357/1/6
f 356/2/6 354/2/6 357/2/6
f 353/2/6 356/2/6 358/2/6
f 356/1/6 357/1/6 358/1/6
f 357/1/6 355/1/6 359/1/6
f 358/1/6 357/1/6 359/1/6
f 353/2/6 358/2/6 360/2/6
f 358/2/6 359/2/6 360/2/6
f 359/1/6 355/1/6 361/1/6
f 360/2/6 359/2/6 361/2/6
f 361/1/6 355/1/6 362/1/6
